<?xml version="1.0" standalone="no"?>
<!DOCTYPE svg PUBLIC "-//W3C//DTD SVG 20010904//EN"
 "http://www.w3.org/TR/2001/REC-SVG-20010904/DTD/svg10.dtd">
<svg version="1.0" xmlns="http://www.w3.org/2000/svg"
 width="72.000000pt" height="72.000000pt" viewBox="0 0 72.000000 72.000000"
 preserveAspectRatio="xMidYMid meet">
<metadata>
Created by potrace 1.11, written by Peter Selinger 2001-2013
</metadata>
<g transform="translate(0.000000,72.000000) scale(0.100000,-0.100000)"
fill="#000000" stroke="none">
<path d="M0 360 l0 -360 360 0 360 0 -1 183 c0 100 -4 171 -8 157 -38 -123
-127 -181 -273 -176 -58 2 -89 9 -124 27 -106 54 -134 132 -134 371 l0 158
-90 0 -90 0 0 -360z"/>
<path d="M330 550 c2 -157 3 -172 24 -202 38 -57 98 -73 157 -42 50 25 59 63
59 249 l0 165 -120 0 -121 0 1 -170z"/>
</g>
</svg>
