<svg width="103" height="98" viewBox="0 0 103 98" fill="none" xmlns="http://www.w3.org/2000/svg">
<path d="M68.9627 67.7911C69.7629 68.0055 70.2378 68.8281 70.0234 69.6283L69.7646 70.5942C69.2643 72.4613 70.3723 74.3805 72.2395 74.8808C73.0397 75.0952 73.5145 75.9177 73.3001 76.7179C73.0857 77.5181 72.2632 77.993 71.463 77.7786C67.9955 76.8494 65.9377 73.2853 66.8668 69.8177L67.1256 68.8518C67.34 68.0516 68.1625 67.5767 68.9627 67.7911Z" fill="#BABABA"/>
<path fill-rule="evenodd" clip-rule="evenodd" d="M82.6535 1.24146C82.8928 0.348218 83.811 -0.181874 84.7042 0.05747L100.788 4.36711C101.681 4.60645 102.211 5.5246 101.972 6.41784L98.7819 18.3234C97.8239 21.8988 95.0449 24.4999 91.7102 25.3964L83.8582 54.7003L89.4292 56.193C90.6202 56.5122 91.327 57.7364 91.0079 58.9274L86.6681 75.1235C86.387 76.1727 85.9852 77.1574 85.4818 78.0666C88.6317 79.1304 90.5175 81.0994 91.507 83.2949C92.1808 84.7898 92.4172 86.3378 92.4084 87.6958C94.0679 87.5837 96.2218 87.9375 98.4845 89.3517C102.285 91.7269 102.9 95.5307 102.678 97.3098L99.7011 96.9377C99.812 96.0501 99.4942 93.5205 96.8945 91.8957C94.1308 90.1684 91.8858 90.7026 91.3603 90.9653L88.4958 92.3976L89.2294 89.2801C89.5039 88.1132 89.5422 86.2365 88.772 84.5276C88.0398 82.903 86.519 81.2891 83.3641 80.588C80.1753 79.8794 78.0525 80.6309 76.6573 81.7102C74.5554 83.3362 74.2839 83.6571 72.9559 86C72.9559 85.3472 72 84 71 83C70 82 68.7815 81.4547 66.8141 81.6186C63.0141 81.9353 62 85.1238 61.682 86.6737C60.5 85.4876 59.2995 85.4276 58.5 85C57.7426 84.5949 56.4632 84.0585 54.5841 84.571C52.8914 85.0326 51.7153 86.2241 50.9152 87.6737C50.1062 89.1392 49.7559 90.7472 49.6856 91.7307L49.4293 95.3189L47.0605 92.6115C46.1683 91.5918 43.3509 89.7065 39.7021 91.0334C37.7415 91.7464 36.7121 93.1769 36.1894 94.624H36.5207C36.4105 94.9481 36.3263 95.2821 36.2704 95.624C36.2669 95.6456 36.2635 95.6671 36.2602 95.6887L36.2545 95.7266C36.2116 96.0204 36.1894 96.32 36.1894 96.624C36.1894 96.9635 36.217 97.2974 36.2704 97.624H14.9364C14.8392 97.624 14.743 97.6194 14.6481 97.6103C13.2241 97.4742 12.0761 96.3396 11.948 94.8877L9.47737 66.8877C9.46956 66.7991 9.46566 66.7112 9.46554 66.624H8.18941C6.53255 66.624 5.18941 65.2809 5.18941 63.624V60.624C5.18941 58.9672 6.53255 57.624 8.18941 57.624H28.1894V50.016C25.4569 50.4302 19.2634 50.2549 13.1898 46.7483C9.95386 44.88 7.09207 41.7019 4.85804 38.6085C2.60841 35.4935 0.898495 32.3279 0 30.333L1.36785 29.7169L1.21744 28.2242C3.39436 28.0048 6.9908 27.9028 10.8133 28.2936C14.6093 28.6816 18.7925 29.5709 22.0284 31.4392C24.5581 32.8997 26.5977 34.6672 28.1894 36.4185V23.9795L28.1584 24.0105L27.5417 24.0137C25.3752 24.0251 20.3874 22.9433 16.1888 18.7448C14.0176 16.5735 12.581 13.6264 11.6564 10.928C10.7267 8.21473 10.2678 5.61398 10.1299 4.00507L9.96955 2.13489L11.829 2.39099C13.5009 2.62125 16.1875 3.18586 18.9148 4.14185C21.6088 5.08621 24.5253 6.47451 26.4922 8.44143C28.2209 10.1701 29.4293 12.1995 30.25 14.1048C30.8921 12.7463 31.7862 11.3407 33.0065 10.1204C34.5896 8.53729 36.9147 7.43726 39.0256 6.69732C41.1697 5.94576 43.2812 5.50172 44.6017 5.31986L46.4612 5.06376L46.3009 6.93393C46.1914 8.21144 45.829 10.2611 45.0968 12.3981C44.3696 14.5204 43.2313 16.8662 41.4918 18.6057C38.1568 21.9407 34.1887 22.8107 32.4241 22.8015L31.8074 22.7983L31.1894 22.1803V36.5766C32.8013 34.7739 34.8871 32.9437 37.493 31.4392C40.7289 29.5709 44.9121 28.6816 48.7081 28.2936C52.5306 27.9028 56.127 28.0048 58.304 28.2242L58.1535 29.7169L59.5214 30.333C58.6229 32.3279 56.913 35.4935 54.6633 38.6085C52.4293 41.7019 49.5675 44.88 46.3316 46.7483C40.1499 50.3173 33.844 50.4354 31.1894 49.9934V57.624H50.1894C51.8463 57.624 53.1894 58.9672 53.1894 60.624V63.624C53.1894 65.2809 51.8463 66.624 50.1894 66.624H48.9133C48.9131 66.7112 48.9092 66.7991 48.9014 66.8877L46.9674 88.8062C47.0384 88.8453 47.1083 88.8848 47.177 88.9248C47.4311 88.0516 47.793 87.1221 48.2887 86.2239C49.3469 84.3068 51.0875 82.415 53.7948 81.6767C56.3157 80.9891 58.3418 81.2895 59.8593 82.1011C60.0277 82.1911 60.1884 82.2867 60.3416 82.387C60.4852 82.097 60.6554 81.809 60.8555 81.5283C61.4872 80.6418 62.3775 79.8821 63.5621 79.3567C61.3627 76.2993 60.5032 72.3159 61.5541 68.3942L65.8938 52.1981C66.2129 51.0071 67.4371 50.3003 68.6281 50.6194L74.199 52.1121L82.051 22.8081C79.6114 20.3643 78.5054 16.7223 79.4634 13.1471L82.6535 1.24146ZM84.1729 7.1622L85.2082 3.29833L98.7311 6.9218L97.6958 10.7857L84.1729 7.1622ZM83.3964 10.06L82.3612 13.9235C81.3606 17.6578 83.5766 21.4961 87.3109 22.4967C91.0452 23.4973 94.8835 21.2812 95.8841 17.547L96.9194 13.6834L83.3964 10.06ZM66.8253 78.6105C69.5202 78.452 71.4307 79.385 72.6378 80.8212C72.7512 80.9561 72.8571 81.0939 72.9559 81.2339C73.4626 80.5613 74.0806 79.9106 74.8217 79.3373C76.6591 77.9159 79.1654 77.0401 82.3798 77.3876C82.995 76.4838 83.4714 75.4628 83.7703 74.347L87.9115 58.8922L68.5929 53.7158L64.4518 69.1706C63.5223 72.6395 64.5359 76.1713 66.8253 78.6105ZM88.4662 25.9122L84.6025 24.8769L77.3555 51.9229L81.2192 52.9581L88.4662 25.9122ZM3.70136 31.0641C4.58846 32.7455 5.81554 34.8103 7.29012 36.8521C9.42945 39.8144 11.9941 42.5939 14.6898 44.1502C19.7408 47.0664 24.8605 47.3469 27.2548 47.1102L27.5647 46.5733L17.5654 40.8002L19.0654 38.2021L27.1372 42.8624C27.3332 42.3512 27.6209 41.7276 28.005 41.0287C26.5248 38.8246 24.0834 36.0898 20.5284 34.0373C17.8327 32.4809 14.1433 31.6496 10.5082 31.278C8.00271 31.0219 5.60107 30.9916 3.70136 31.0641ZM40.456 38.2021L32.3842 42.8624C32.1882 42.3512 31.9005 41.7276 31.5164 41.0287C32.9966 38.8246 35.438 36.0898 38.993 34.0373C41.6886 32.4809 45.3781 31.6496 49.0132 31.278C51.5187 31.0219 53.9203 30.9916 55.82 31.0641C54.9329 32.7455 53.7059 34.8103 52.2313 36.8521C50.0919 39.8144 47.5273 42.5939 44.8316 44.1502C39.7806 47.0664 34.6609 47.3469 32.2666 47.1102L31.9567 46.5733L41.956 40.8002L40.456 38.2021ZM17.9224 6.97295C16.3156 6.40973 14.7219 5.99401 13.3913 5.71335C13.6153 6.94781 13.9717 8.4301 14.4944 9.95553C15.3468 12.4433 16.595 14.9083 18.3102 16.6234C21.4862 19.7995 25.1488 20.8037 26.9436 20.9827L28.6811 19.2451C28.3473 17.1919 27.1562 13.3482 24.3708 10.5628C22.8831 9.07505 20.4775 7.8686 17.9224 6.97295ZM43.0085 8.6688C42.0965 8.87826 41.0608 9.16292 40.018 9.52843C38.0461 10.2196 36.2317 11.1378 35.1278 12.2417C33.0965 14.273 32.1841 17.0647 31.8973 18.6455L33.0134 19.7616C34.3875 19.5888 37.0478 18.807 39.3705 16.4844C40.6539 15.201 41.6037 13.3373 42.2587 11.4257C42.592 10.4531 42.8369 9.50365 43.0085 8.6688ZM8.18941 60.624H50.1894V63.624H8.18941V60.624ZM33.0633 94.624C33.6547 92.2802 35.1288 89.5043 38.6768 88.214C40.6595 87.493 42.479 87.4418 44.0494 87.7456L45.913 66.624H12.4658L14.9363 94.624H33.0633Z" fill="#BABABA"/>
</svg>
