<svg width="100" height="90" viewBox="0 0 100 90" fill="none" xmlns="http://www.w3.org/2000/svg">
<path fill-rule="evenodd" clip-rule="evenodd" d="M42 56C42 54.3431 43.3431 53 45 53H55C56.6569 53 58 54.3431 58 56V59C58 60.6569 56.6569 62 55 62H45C43.3431 62 42 60.6569 42 59V56ZM45 56H55V59H45V56Z" fill="#BABABA"/>
<path fill-rule="evenodd" clip-rule="evenodd" d="M42 7V3C42 1.34315 43.3431 0 45 0H54C55.6569 0 57 1.34315 57 3V7H91V6C91 4.34315 92.3431 3 94 3H97C98.6569 3 100 4.34315 100 6V87C100 88.6569 98.6569 90 97 90H94C92.3431 90 91 88.6569 91 87H9C9 88.6569 7.65685 90 6 90H3C1.34315 90 0 88.6569 0 87V6C0 4.34315 1.34315 3 3 3H6C7.65685 3 9 4.34315 9 6V7H42ZM45 3H54V27H45V3ZM47 30H52V35H47V30ZM55 34V35H56C57.6569 35 59 36.3431 59 38V40C59 41.6569 57.6569 43 56 43H54V44H65V33.8293C64.6872 33.9398 64.3506 34 64 34H55ZM68 44H73V32H68V44ZM76 44H91V16H57V19H64C65.1445 19 66.1393 19.6409 66.6451 20.5833C66.7174 20.7179 66.7796 20.8587 66.8309 21.0047C66.8869 21.0016 66.9433 21 67 21H74C74.0567 21 74.1131 21.0016 74.1691 21.0047L74.1707 21C74.5825 19.8348 75.6938 19 77 19H86C87.6569 19 89 20.3431 89 22V31C89 32.6569 87.6569 34 86 34H77C76.6494 34 76.3128 33.9398 76 33.8293V44ZM57 22V27C57 28.3062 56.1652 29.4175 55 29.8293V31H64V22H57ZM44 35V30C44 29.9433 44.0016 29.8869 44.0047 29.8309C42.837 29.4204 42 28.308 42 27V16H30.6087C31.0868 16.1956 31.5512 16.4178 32 16.6649C36.1726 18.9614 39 23.4005 39 28.4999C39 34.148 35.5314 38.986 30.6081 41H32V44H45V43H43C41.3431 43 40 41.6569 40 40V38C40 36.3431 41.3431 35 43 35H44ZM48 43V44H51V43H48ZM43 38V40H56V38H43ZM57 10V13H91V10H57ZM42 13V10H9V13H42ZM3 6H6V87H3L3 6ZM9 44V16H20.3913C19.9132 16.1956 19.4488 16.4178 19 16.6649C14.8274 18.9614 12 23.4005 12 28.4999C12 34.148 15.4686 38.986 20.3919 41H20V44H9ZM22 25.9999V16H29V25.9999C29 27.6567 27.6569 28.9999 26 28.9999H25C23.3431 28.9999 22 27.6567 22 25.9999ZM25.5 41.9999C26.7105 41.9999 27.8838 41.8406 29 41.5418V44H23V41.7689C23.8102 41.9205 24.6458 41.9999 25.5 41.9999ZM94 87H97V6H94V87ZM9 84V47H91V84H9ZM19 20.2523C16.5632 22.1762 15 25.1573 15 28.4999C15 34.2989 19.701 38.9999 25.5 38.9999C31.299 38.9999 36 34.2989 36 28.4999C36 25.1573 34.4368 22.1762 32 20.2523V25.9999C32 29.3136 29.3137 31.9999 26 31.9999H25C21.6863 31.9999 19 29.3136 19 25.9999V20.2523ZM67 24H74V29H67V24ZM86 22H77V31H86V22Z" fill="#BABABA"/>
</svg>
