<svg width="100" height="80" viewBox="0 0 100 80" fill="none" xmlns="http://www.w3.org/2000/svg">
<path fill-rule="evenodd" clip-rule="evenodd" d="M28 21.9587H21V28.9587H28V21.9587ZM21 18.9587C19.3431 18.9587 18 20.3019 18 21.9587V28.9587C18 30.6156 19.3431 31.9587 21 31.9587H28C29.6569 31.9587 31 30.6156 31 28.9587V21.9587C31 20.3019 29.6569 18.9587 28 18.9587H21Z" fill="#BABABA"/>
<path fill-rule="evenodd" clip-rule="evenodd" d="M28 39.9587H21V46.9587H28V39.9587ZM21 36.9587C19.3431 36.9587 18 38.3019 18 39.9587V46.9587C18 48.6156 19.3431 49.9587 21 49.9587H28C29.6569 49.9587 31 48.6156 31 46.9587V39.9587C31 38.3019 29.6569 36.9587 28 36.9587H21Z" fill="#BABABA"/>
<path fill-rule="evenodd" clip-rule="evenodd" d="M53 21.9587H40V28.9587H53V21.9587ZM40 18.9587C38.3431 18.9587 37 20.3019 37 21.9587V28.9587C37 30.6156 38.3431 31.9587 40 31.9587H53C54.6569 31.9587 56 30.6156 56 28.9587V21.9587C56 20.3019 54.6569 18.9587 53 18.9587H40Z" fill="#BABABA"/>
<path fill-rule="evenodd" clip-rule="evenodd" d="M53 39.9587H40V46.9587H53V39.9587ZM40 36.9587C38.3431 36.9587 37 38.3019 37 39.9587V46.9587C37 48.6156 38.3431 49.9587 40 49.9587H53C54.6569 49.9587 56 48.6156 56 46.9587V39.9587C56 38.3019 54.6569 36.9587 53 36.9587H40Z" fill="#BABABA"/>
<path d="M30 23.9587H37V26.9587H30V23.9587Z" fill="#BABABA"/>
<path d="M30 41.9587H37V44.9587H30V41.9587Z" fill="#BABABA"/>
<path d="M25 56.4587C25 55.6303 25.6716 54.9587 26.5 54.9587H40.5C41.3284 54.9587 42 55.6303 42 56.4587C42 57.2872 41.3284 57.9587 40.5 57.9587H26.5C25.6716 57.9587 25 57.2872 25 56.4587Z" fill="#BABABA"/>
<path d="M18 63.4587C18 62.6303 18.6716 61.9587 19.5 61.9587H40.5C41.3284 61.9587 42 62.6303 42 63.4587C42 64.2872 41.3284 64.9587 40.5 64.9587H19.5C18.6716 64.9587 18 64.2872 18 63.4587Z" fill="#BABABA"/>
<path d="M18 69.4587C18 68.6303 18.6716 67.9587 19.5 67.9587H40.5C41.3284 67.9587 42 68.6303 42 69.4587C42 70.2872 41.3284 70.9587 40.5 70.9587H19.5C18.6716 70.9587 18 70.2872 18 69.4587Z" fill="#BABABA"/>
<path d="M18 56.4587C18 55.6303 18.6716 54.9587 19.5 54.9587C20.3284 54.9587 21 55.6303 21 56.4587C21 57.2872 20.3284 57.9587 19.5 57.9587C18.6716 57.9587 18 57.2872 18 56.4587Z" fill="#BABABA"/>
<path d="M23 37.9587V30.9587H26V37.9587H23Z" fill="#BABABA"/>
<path d="M62 43.4587C62 42.6303 62.6716 41.9587 63.5 41.9587H83.5C84.3284 41.9587 85 42.6303 85 43.4587C85 44.2872 84.3284 44.9587 83.5 44.9587H63.5C62.6716 44.9587 62 44.2872 62 43.4587Z" fill="#BABABA"/>
<path d="M73.0217 34.9587C73.8502 34.9587 74.5217 35.6303 74.5217 36.4587V42.4587C74.5217 43.2872 73.8502 43.9587 73.0217 43.9587C72.1933 43.9587 71.5217 43.2872 71.5217 42.4587V36.4587C71.5217 35.6303 72.1933 34.9587 73.0217 34.9587Z" fill="#BABABA"/>
<path d="M79.5 34.9587C80.3284 34.9587 81 35.6303 81 36.4587V42.4587C81 43.2872 80.3284 43.9587 79.5 43.9587C78.6716 43.9587 78 43.2872 78 42.4587V36.4587C78 35.6303 78.6716 34.9587 79.5 34.9587Z" fill="#BABABA"/>
<path d="M66.5 34.9587C67.3284 34.9587 68 35.6303 68 36.4587V42.4587C68 43.2872 67.3284 43.9587 66.5 43.9587C65.6716 43.9587 65 43.2872 65 42.4587V36.4587C65 35.6303 65.6716 34.9587 66.5 34.9587Z" fill="#BABABA"/>
<path d="M68.0607 31.0194C68.6465 30.4336 69.5962 30.4336 70.182 31.0194L74.1418 34.9792C74.7276 35.565 74.7276 36.5147 74.1418 37.1005C73.556 37.6863 72.6062 37.6863 72.0205 37.1005L68.0607 33.1407C67.4749 32.5549 67.4749 31.6052 68.0607 31.0194Z" fill="#BABABA"/>
<path d="M78.4244 31.0194C77.8386 30.4336 76.8889 30.4336 76.3031 31.0194L72.9373 34.3852C72.3515 34.971 72.3515 35.9208 72.9373 36.5065C73.5231 37.0923 74.4728 37.0923 75.0586 36.5065L78.4244 33.1407C79.0102 32.5549 79.0102 31.6052 78.4244 31.0194Z" fill="#BABABA"/>
<path fill-rule="evenodd" clip-rule="evenodd" d="M3 69.3785C4.43979 68.3905 6.49704 67.7377 9.37448 67.8222C11.2648 67.8777 13 66.4936 13 64.6024V2.95875C13 1.30189 11.6546 -0.0585062 9.99887 0.00193958C3.76932 0.229359 0 1.57862 0 8.95892V74.9589C0 73.3107 0.737919 70.9309 3 69.3785ZM3 65.9558V8.95892C3 5.74514 3.80658 4.68973 4.46113 4.19977C5.35729 3.52894 6.96569 3.12285 10 3.00404V64.6017C9.99478 64.6106 9.97874 64.6345 9.94153 64.6664C9.83937 64.7542 9.66171 64.8293 9.46255 64.8235C6.92237 64.7489 4.7712 65.1645 3 65.9558Z" fill="#BABABA"/>
<path fill-rule="evenodd" clip-rule="evenodd" d="M0.521546 73.7324C0.138146 72.0652 0 69.9926 0 67.4587H3C3 69.9248 3.13876 71.7273 3.44524 73.0601C3.74719 74.3732 4.18677 75.1194 4.71408 75.5983C5.24973 76.0846 6.03985 76.4445 7.33123 76.6683C8.63599 76.8943 10.3084 76.9587 12.5 76.9587V79.9587C10.2992 79.9587 8.40043 79.8982 6.81912 79.6242C5.22442 79.3479 3.81359 78.8328 2.69734 77.8192C1.57274 76.798 0.909469 75.4193 0.521546 73.7324Z" fill="#BABABA"/>
<path fill-rule="evenodd" clip-rule="evenodd" d="M78 36.2041C79.8289 34.738 81 32.4851 81 29.9587C81 25.5405 77.4183 21.9587 73 21.9587C68.5817 21.9587 65 25.5405 65 29.9587C65 32.4851 66.1711 34.738 68 36.2041V39.7593C64.4383 37.9386 62 34.2334 62 29.9587C62 23.8836 66.9249 18.9587 73 18.9587C79.0751 18.9587 84 23.8836 84 29.9587C84 34.2334 81.5617 37.9386 78 39.7593V36.2041Z" fill="#BABABA"/>
<path fill-rule="evenodd" clip-rule="evenodd" d="M81 37.5086C80.14 38.4195 79.1262 39.1836 78 39.7593V36.2041C79.6884 34.8506 80.8162 32.8266 80.9795 30.5358C80.9931 30.3452 81 30.1528 81 29.9587C81 25.5405 77.4183 21.9587 73 21.9587C68.5817 21.9587 65 25.5405 65 29.9587V29.961C65.0007 32.4865 66.1716 34.7384 68 36.2041V39.7593C66.8738 39.1836 65.86 38.4195 65 37.5086C63.1402 35.5386 62 32.8818 62 29.9587C62 23.8836 66.9249 18.9587 73 18.9587C79.0751 18.9587 84 23.8836 84 29.9587C84 30.0673 83.9984 30.1756 83.9953 30.2834C83.9143 33.0783 82.7907 35.6118 81 37.5086Z" fill="#BABABA"/>
<path fill-rule="evenodd" clip-rule="evenodd" d="M97 57.9587H63V67.9587H97V57.9587ZM63 54.9587C61.3431 54.9587 60 56.3019 60 57.9587V67.9587C60 69.6156 61.3431 70.9587 63 70.9587H97C98.6569 70.9587 100 69.6156 100 67.9587V57.9587C100 56.3019 98.6569 54.9587 97 54.9587H63Z" fill="#BABABA"/>
<path d="M80 56.9587H83V70.9587H80V56.9587Z" fill="#BABABA"/>
<path d="M87 56.9587H90V70.9587H87V56.9587Z" fill="#BABABA"/>
<path fill-rule="evenodd" clip-rule="evenodd" d="M92 12.9587H13V67.9587H10V12.9587C10 11.3019 11.3431 9.95874 13 9.95874H92C93.6569 9.95874 95 11.3019 95 12.9587V56.9587H92V12.9587ZM10 76.9587C10 78.6156 11.3431 79.9587 13 79.9587H92C93.6569 79.9587 95 78.6156 95 76.9587V68.9587H92V76.9587H10Z" fill="#BABABA"/>
<path fill-rule="evenodd" clip-rule="evenodd" d="M10.029 12.5397C10.025 12.5684 10.0214 12.5972 10.0182 12.6261C10.0062 12.7353 10 12.8463 10 12.9587V67.9587H13V12.9587H92V56.9587H95V12.9587C95 11.3019 93.6569 9.95874 92 9.95874H13C11.4854 9.95874 10.2329 11.0812 10.029 12.5397ZM10 76.9587C10 78.6156 11.3431 79.9587 13 79.9587H92C93.6569 79.9587 95 78.6156 95 76.9587V68.9587H92V76.9587H10Z" fill="#BABABA"/>
<path fill-rule="evenodd" clip-rule="evenodd" d="M47 62.8846L61.2074 54.9587H63V70.9587H61.2368L47 62.8846ZM53.1192 62.9061L60 66.8084V59.0676L53.1192 62.9061Z" fill="#BABABA"/>
<path fill-rule="evenodd" clip-rule="evenodd" d="M47 62.8846L61.2074 54.9587H63V70.9587H61.2368L47 62.8846ZM60 66.8084L53.1192 62.9061L60 59.0676V66.8084Z" fill="#BABABA"/>
</svg>
