<svg width="100" height="100" viewBox="0 0 100 100" fill="none" xmlns="http://www.w3.org/2000/svg">
<path d="M43.8604 58.8284L91.1444 10.8621L94.5014 5.23639L92.9294 3.63572L87.3694 7.03587L40.0884 54.99L43.8604 58.8284Z" fill="#999999"/>
<path d="M2.80839 97.1513C6.40339 100.798 12.0284 101.02 15.6174 97.3744L38.4504 73.7123C38.7654 73.3867 38.7654 72.8694 38.4504 72.5438C37.5134 71.5811 37.5134 70.0474 38.4504 69.0899C39.3824 68.1455 40.9074 68.1455 41.8494 69.0899C42.1644 69.4216 42.6804 69.4216 43.0014 69.0899L46.1874 65.8642C46.4484 65.5933 46.4774 65.1906 46.2994 64.8711L34.1264 52.5232C33.8114 52.3427 33.4144 52.367 33.1534 52.6379L29.9664 55.8696C29.6464 56.1942 29.6524 56.7126 29.9724 57.0361C30.9104 57.9937 30.9104 59.5406 29.9724 60.4901C29.0294 61.4415 27.5054 61.4365 26.5674 60.4901C26.2544 60.1604 25.7384 60.1604 25.4114 60.4901L2.58839 84.1512C-1.00561 87.7937 -0.786613 93.5046 2.80839 97.1513Z" fill="#999999"/>
<path d="M97.4903 79.9942L60.7223 45.0189L49.3843 56.5127L84.8603 92.5278C88.2883 96.1511 93.7883 96.1511 97.3543 92.6738C100.789 89.0495 100.926 83.4786 97.4903 79.9942ZM94.3273 89.6043C92.5493 91.554 89.6603 91.277 87.7433 89.4583C86.0953 87.7866 86.0953 84.7364 87.7433 82.9237C89.6603 81.107 92.5493 81.107 94.3273 82.9237C96.1203 84.7364 96.1203 87.9377 94.3273 89.6043Z" fill="#999999"/>
<path d="M42.3783 49.3948L53.4483 38.1658L42.7343 28.2484C39.5843 24.7762 38.7543 23.3804 39.5843 19.3361C40.5453 14.8831 39.7743 6.69917 32.2993 2.34247C23.7143 -2.66951 14.9943 1.92049 14.9943 1.92049L14.3113 3.03427C14.3113 3.03427 22.0053 8.1913 22.9663 8.75123C24.0583 9.44911 27.3563 13.2043 23.3693 19.1982C19.5193 25.185 15.2723 23.2414 14.0323 22.2616C13.0763 21.7006 5.37728 16.6886 5.37728 16.6886L4.69428 17.8014C4.69428 17.8014 4.14228 28.2484 12.6563 33.8203C16.6423 36.4678 20.8963 36.4678 23.9203 35.3601C26.9403 34.3863 29.1413 35.499 32.8433 39.1163L42.3783 49.3948Z" fill="#999999"/>
</svg>
