<svg width="111" height="99" viewBox="0 0 111 99" fill="none" xmlns="http://www.w3.org/2000/svg">
<path fill-rule="evenodd" clip-rule="evenodd" d="M81 68.8753V76C81 77.6569 79.6569 79 78 79H50C48.3431 79 47 77.6569 47 76V64C47 63.6494 47.0602 63.3128 47.1707 63H34C33.4536 63 32.9413 62.8539 32.5 62.5987C32.0587 62.8539 31.5464 63 31 63H3C1.34315 63 0 61.6569 0 60V48C0 46.3431 1.34315 45 3 45H16V33C16 31.3431 17.3431 30 19 30H32V18C32 16.3431 33.3431 15 35 15H46V3C46 1.34315 47.3431 0 49 0H77C77.5464 0 78.0587 0.146092 78.5 0.401348C78.9413 0.146092 79.4536 0 80 0H108C109.657 0 111 1.34315 111 3V15C111 16.6569 109.657 18 108 18H97V30C97 31.6569 95.6569 33 94 33H93.2421C96.3859 37.4518 98.8351 41.8147 99.6924 43.7779C105.479 57.0296 102.67 62.5401 100.542 63.6389L90.8096 66.2468L92.1037 71.0765L96.0125 70.0291C97.0546 69.7499 98.1258 70.3683 98.405 71.4104L103.335 89.8079C104.335 93.5422 102.119 97.3806 98.3849 98.3812C94.6506 99.3818 90.8123 97.1657 89.8117 93.4314L84.8821 75.0339C84.6028 73.9918 85.2213 72.9206 86.2634 72.6414L89.2059 71.8529L87.9118 67.0233L81 68.8753ZM49 3H77V15H49V3ZM63 18H35V30H63V18ZM70.6962 30H66V18H94V30H91.0186C86.4927 24.1969 81.1006 19.1551 76.9378 20.2705C73.8979 21.085 71.9321 25.0707 70.6962 30ZM70.0493 33H50V45H68.8459C68.9558 41.388 69.3036 37.0421 70.0493 33ZM68.8068 48H65V60C65 60.3506 64.9398 60.6872 64.8293 61H70.8194C70.0453 58.638 69.3985 55.6819 68.9854 52.0058C68.8853 51.1145 68.8165 49.7193 68.8068 48ZM72.0081 64H50V76H78V69.6329C76.4923 69.596 74.0427 68.2524 72.0081 64ZM90.0331 63.349L87.1695 52.6618C86.9551 51.8616 86.1326 51.3867 85.3324 51.6011C84.5322 51.8155 84.0573 52.638 84.2717 53.4382L87.1353 64.1255L77.9389 66.5897C77.6301 66.4788 76.8074 66.0737 75.7659 64.5536C74.3414 62.4743 72.7417 58.5692 71.9667 51.6709C71.6953 49.2552 71.6652 42.1252 72.6953 35.3568C73.2097 31.9773 73.961 28.8831 74.9759 26.5804C76.0518 24.1396 77.0843 23.3371 77.7142 23.1683C78.3442 22.9995 79.6396 23.1782 81.7917 24.7541C83.8221 26.2408 86.0198 28.5448 88.155 31.2143C92.4313 36.5609 95.9703 42.7507 96.9431 44.9785C99.721 51.3401 100.288 55.5219 100.094 58.0348C99.9523 59.8721 99.4423 60.6342 99.2304 60.8846L90.0331 63.349ZM62 48H34V60H62V48ZM47 45V33H19V45H47ZM31 48H3V60H31V48ZM108 15V3H80V15H108ZM90.3801 83.9617L92.7094 92.655C93.2812 94.7888 95.4746 96.0552 97.6084 95.4834C99.7423 94.9116 101.009 92.7183 100.437 90.5844L98.1075 81.8912L90.3801 83.9617ZM89.6036 81.0639L97.331 78.9934L95.7781 73.1977L91.4538 74.3565L91.4313 74.3626L91.4088 74.3685L88.0507 75.2683L89.6036 81.0639Z" fill="#BABABA"/>
</svg>
