<svg width="18" height="19" viewBox="0 0 18 19" fill="none" xmlns="http://www.w3.org/2000/svg">
<path d="M17.8242 7.2418H17.1V7.20488H9V10.8049H14.0871C13.3436 12.9002 11.3502 14.4049 9 14.4049C6.01699 14.4049 3.6 11.9879 3.6 9.00488C3.6 6.02188 6.01699 3.60488 9 3.60488C10.3764 3.60488 11.6297 4.12344 12.5824 4.97246L15.1277 2.42715C13.5211 0.929493 11.3713 0.00488281 9 0.00488281C4.02891 0.00488281 0 4.03379 0 9.00488C0 13.976 4.02891 18.0049 9 18.0049C13.9711 18.0049 18 13.976 18 9.00488C18 8.40195 17.9385 7.81309 17.8242 7.2418Z" fill="#FFC107"/>
<path d="M1 4.82961L3.93937 7.00488C4.73403 5.01823 6.65868 3.61506 8.91168 3.61506C10.2792 3.61506 11.5245 4.13508 12.4711 4.9865L15 2.43399C13.4037 0.932106 11.2677 0.00488281 8.91168 0.00488281C5.4763 0.00488281 2.4985 1.96157 1 4.82961Z" fill="#FF3D00"/>
<path d="M8.98548 18.0049C11.3016 18.0049 13.4075 17.1372 15 15.7259L12.2231 13.4262C11.3226 14.0933 10.2031 14.4929 8.98548 14.4929C6.65186 14.4929 4.67213 13.037 3.92579 11.0049L1 13.2102C2.48392 16.0534 5.49906 18.0049 8.98548 18.0049Z" fill="#4CAF50"/>
<path d="M17.8242 7.04409H17.1V7.00488H9V10.8287H14.0871C13.7303 11.8985 13.0816 12.819 12.2467 13.4911C12.2484 13.4911 12.2484 13.4911 12.2484 13.4911L15.0346 15.9949C14.8377 16.1835 18 13.6965 18 8.91678C18 8.27637 17.9385 7.65089 17.8242 7.04409Z" fill="#1976D2"/>
</svg>
