<svg width="52" height="64" viewBox="0 0 52 64" fill="none" xmlns="http://www.w3.org/2000/svg">
<path fill-rule="evenodd" clip-rule="evenodd" d="M0.930606 0H50.625C51.1213 0 51.5556 0.431599 51.5556 0.924855V63.0751C51.5556 63.5684 51.1213 64 50.625 64H0.930606C0.434283 64 0 63.5684 0 63.0751V0.924855C0 0.431599 0.434283 0 0.930606 0V0ZM9.0579 41.1252C8.56157 41.1252 8.18933 40.7553 8.18933 40.2004C8.18933 39.7071 8.56157 39.3372 9.0579 39.3372H42.4356C42.932 39.3372 43.3662 39.7071 43.3662 40.2004C43.3662 40.7553 42.932 41.1252 42.4356 41.1252H9.0579ZM9.0579 55.738C8.56157 55.738 8.18933 55.368 8.18933 54.8748C8.18933 54.3198 8.56157 53.9499 9.0579 53.9499H42.4356C42.932 53.9499 43.3662 54.3198 43.3662 54.8748C43.3662 55.368 42.932 55.738 42.4356 55.738H9.0579ZM19.7909 18.0655C22.7688 19.422 24.7541 22.3815 24.7541 25.5877C24.7541 26.1426 24.3198 26.5125 23.8235 26.5125H9.0579C8.56157 26.5125 8.18933 26.1426 8.18933 25.5877C8.18933 22.3815 10.1126 19.422 13.0905 18.0655C11.7256 17.079 10.9191 15.4143 10.9191 13.7495C10.9191 10.7283 13.4007 8.26204 16.4407 8.26204C19.4807 8.26204 21.9623 10.7283 21.9623 13.7495C21.9623 15.4759 21.1558 17.079 19.7909 18.0655ZM16.4407 19.237C13.2766 19.237 10.5469 21.58 10.0505 24.7245H22.8309C22.3345 21.58 19.6048 19.237 16.4407 19.237ZM16.4407 10.0501C14.3934 10.0501 12.7803 11.7148 12.7803 13.7495C12.7803 15.7225 14.3934 17.3873 16.4407 17.3873C18.488 17.3873 20.1011 15.7225 20.1011 13.7495C20.1011 11.7148 18.488 10.0501 16.4407 10.0501ZM29.5312 18.3121C29.0349 18.3121 28.6627 17.8805 28.6627 17.3873C28.6627 16.894 29.0349 16.4624 29.5312 16.4624H42.4356C42.932 16.4624 43.3662 16.894 43.3662 17.3873C43.3662 17.8805 42.932 18.3121 42.4356 18.3121H29.5312ZM29.5312 25.5877C29.0349 25.5877 28.6627 25.2177 28.6627 24.7245C28.6627 24.1696 29.0349 23.7996 29.5312 23.7996H42.4356C42.932 23.7996 43.3662 24.1696 43.3662 24.7245C43.3662 25.2177 42.932 25.5877 42.4356 25.5877H29.5312ZM29.5312 10.975C29.0349 10.975 28.6627 10.605 28.6627 10.0501C28.6627 9.55684 29.0349 9.12524 29.5312 9.12524H42.4356C42.932 9.12524 43.3662 9.55684 43.3662 10.0501C43.3662 10.605 42.932 10.975 42.4356 10.975H29.5312ZM9.0579 33.8497C8.56157 33.8497 8.18933 33.4181 8.18933 32.9249C8.18933 32.4316 8.56157 32 9.0579 32H42.4356C42.932 32 43.3662 32.4316 43.3662 32.9249C43.3662 33.4181 42.932 33.8497 42.4356 33.8497H9.0579ZM9.0579 48.4624C8.56157 48.4624 8.18933 48.0308 8.18933 47.5376C8.18933 47.0443 8.56157 46.6127 9.0579 46.6127H42.4356C42.932 46.6127 43.3662 47.0443 43.3662 47.5376C43.3662 48.0308 42.932 48.4624 42.4356 48.4624H9.0579Z" fill="#47AB2F"/>
</svg>
