<svg width="64" height="64" viewBox="0 0 64 64" fill="none" xmlns="http://www.w3.org/2000/svg">
<path d="M54.4508 7.87045C50.9876 4.96401 46.961 2.80488 42.6236 1.52862C39.967 0.718201 37.2235 0.226264 34.4508 0.0631467C33.0953 -0.0210489 31.7359 -0.0210489 30.3804 0.0631467C28.6024 0.155181 26.8311 0.34747 25.0748 0.639095C21.3523 1.31065 17.7708 2.60896 14.4828 4.47875C10.0598 6.87577 6.33674 10.3824 3.67957 14.6538C1.96154 17.3536 0.812113 20.3753 0.301526 23.5343C-0.209061 26.6932 -0.0700835 29.9231 0.709966 33.0266C1.98662 38.237 4.87325 42.9125 8.95957 46.3886C14.0724 50.8656 20.4283 53.6783 27.1804 54.4519C27.5792 54.4735 27.9694 54.5768 28.3267 54.7553C28.6841 54.9339 29.0009 55.1839 29.2577 55.4898C29.5145 55.7958 29.7057 56.1512 29.8196 56.534C29.9334 56.9169 29.9675 57.319 29.9196 57.7156C29.9196 58.7651 29.6828 59.8082 29.5548 60.8513C29.3571 61.6267 29.3136 62.4333 29.4268 63.2255C29.432 63.3376 29.4605 63.4474 29.5103 63.548C29.5601 63.6485 29.6302 63.7377 29.7162 63.8098C29.8022 63.882 29.9022 63.9355 30.0099 63.9671C30.1176 63.9987 30.2306 64.0077 30.342 63.9934C31.0004 63.9085 31.6455 63.7408 32.262 63.4943C34.9938 62.2291 37.5851 60.6805 39.9932 58.8739C45.3384 55.096 50.3858 50.9134 55.0908 46.363C56.7287 44.8592 58.2123 43.1956 59.5196 41.397C62.3981 37.3231 63.9614 32.4662 63.9996 27.4783C64.0025 25.2649 63.6988 23.0618 63.0972 20.9317C61.6007 15.8045 58.5863 11.2509 54.4508 7.87045ZM19.0204 32.4698C18.2893 32.4749 17.5733 32.262 16.9637 31.8585C16.3541 31.4549 15.8785 30.879 15.5976 30.2041C15.3167 29.5292 15.2432 28.7859 15.3865 28.0691C15.5298 27.3522 15.8834 26.6943 16.4021 26.1792C16.9209 25.6641 17.5814 25.3152 18.2992 25.177C19.0171 25.0387 19.76 25.1175 20.4329 25.4031C21.1059 25.6887 21.6785 26.1683 22.0778 26.7806C22.4771 27.393 22.6849 28.1104 22.6748 28.8414C22.6647 29.805 22.2756 30.7259 21.5917 31.405C20.9079 32.084 19.9841 32.4665 19.0204 32.4698ZM31.9612 32.4698C31.2345 32.4635 30.5259 32.2422 29.9248 31.8338C29.3237 31.4253 28.857 30.8481 28.5836 30.1748C28.3102 29.5015 28.2422 28.7624 28.3883 28.0505C28.5344 27.3387 28.888 26.6861 29.4046 26.1749C29.9211 25.6637 30.5775 25.317 31.2909 25.1783C32.0042 25.0396 32.7427 25.1152 33.4132 25.3956C34.0836 25.676 34.656 26.1486 35.0582 26.7539C35.4604 27.3591 35.6744 28.0699 35.6732 28.7966C35.6631 29.7749 35.2677 30.7098 34.5729 31.3986C33.878 32.0874 32.9396 32.4746 31.9612 32.4762V32.4698ZM44.9788 32.4698C44.2499 32.4736 43.5362 32.2609 42.9284 31.8586C42.3206 31.4563 41.8459 30.8826 41.5646 30.2102C41.2833 29.5378 41.2081 28.797 41.3484 28.0818C41.4888 27.3666 41.8384 26.7091 42.3529 26.1928C42.8674 25.6766 43.5237 25.3247 44.2385 25.1819C44.9533 25.0391 45.6944 25.1117 46.3678 25.3906C47.0413 25.6695 47.6167 26.1422 48.0211 26.7485C48.4256 27.3549 48.6408 28.0677 48.6396 28.7966C48.6413 29.7697 48.2567 30.7037 47.5704 31.3936C46.884 32.0835 45.952 32.4729 44.9788 32.4762V32.4698Z" fill="#47AB2F"/>
</svg>
