<svg width="30" height="30" viewBox="0 0 30 30" fill="none" xmlns="http://www.w3.org/2000/svg">
<path d="M13.2875 22.1796C14.7208 22.7265 16.4245 23 18.3986 23C20.3998 23 22.1305 22.7265 23.5908 22.1796C25.0511 21.6327 26.2546 20.867 27.2011 19.8826C28.1476 18.8708 28.8507 17.6676 29.3104 16.273C29.7701 14.8784 30 13.347 30 11.6789V30H0V0H7V11.6789C7 13.347 7.21634 14.8784 7.64903 16.273C8.10876 17.6403 8.79835 18.8298 9.71781 19.8416C10.6643 20.826 11.8542 21.6054 13.2875 22.1796Z" fill="#47AB2F"/>
<path d="M12.9911 0H23.9845V11.1457C23.9845 13.4427 23.1852 15.0698 22.2116 16.0269C21.2651 16.984 20.0212 17.4625 18.4797 17.4625C17.7225 17.4625 17.0194 17.3531 16.3704 17.1344C16.2361 17.0872 16.0936 17.0431 15.9481 16.9981C15.4195 16.8348 14.8507 16.659 14.4902 16.273C14.0575 15.7534 13.5579 14.7843 13.2875 13.9913C13.0441 13.1709 12.9911 12.2942 12.9911 11.1457V0Z" fill="#47AB2F"/>
</svg>
