<svg width="14" height="24" viewBox="0 0 14 24" fill="none" xmlns="http://www.w3.org/2000/svg">
<path d="M7.10113 0C3.6618 0 0.873749 2.78451 0.873749 6.21927C0.873749 9.65412 3.6618 12.4388 7.10113 12.4388C10.5405 12.4388 13.3285 9.65412 13.3285 6.21927C13.3285 2.78451 10.5405 0 7.10113 0ZM7.10113 8.79035C5.67943 8.79035 4.52687 7.6392 4.52687 6.21936C4.52687 4.79951 5.67943 3.64845 7.10113 3.64845C8.52283 3.64845 9.67539 4.79951 9.67539 6.21936C9.67539 7.6392 8.52283 8.79035 7.10113 8.79035Z" fill="white"/>
<path d="M9.29991 17.3875C11.793 16.8803 13.287 15.7012 13.366 15.6379C14.0955 15.0536 14.2127 13.9893 13.6277 13.2607C13.0427 12.5321 11.9771 12.4151 11.2474 12.9993C11.232 13.0117 9.63856 14.2325 7.0168 14.2343C4.39513 14.2325 2.76801 13.0117 2.75259 12.9993C2.0229 12.4151 0.957314 12.5321 0.372344 13.2607C-0.212716 13.9893 -0.0955252 15.0536 0.633994 15.6379C0.714111 15.7021 2.26975 16.9119 4.8327 17.4072L1.26076 21.1353C0.611626 21.8076 0.631143 22.8781 1.30434 23.5264C1.63292 23.8428 2.05641 24.0001 2.47954 24.0001C2.92317 24.0001 3.36635 23.827 3.69858 23.4828L7.01689 19.9525L10.6704 23.5057C11.3323 24.1657 12.4042 24.1646 13.065 23.5038C13.7257 22.8429 13.7249 21.7722 13.0631 21.1123L9.29991 17.3875Z" fill="white"/>
</svg>
