<svg width="19" height="20" viewBox="0 0 19 20" fill="none" xmlns="http://www.w3.org/2000/svg">
<path fill-rule="evenodd" clip-rule="evenodd" d="M14.8008 14.1151C17.7732 10.7873 17.6622 5.67684 14.4676 2.48224C11.1579 -0.827415 5.7919 -0.827415 2.48224 2.48224C-0.827415 5.7919 -0.827415 11.1579 2.48224 14.4676C5.4262 17.4115 9.99719 17.7368 13.3007 15.4435L17.0147 19.1575L18.429 17.7433L14.8008 14.1151ZM13.0159 3.93403C15.5239 6.44202 15.5239 10.5083 13.0159 13.0163C10.5079 15.5243 6.44168 15.5243 3.93369 13.0163C1.4257 10.5083 1.4257 6.44202 3.93369 3.93403C6.44168 1.42604 10.5079 1.42604 13.0159 3.93403Z" fill="#46AA32"/>
</svg>
