<svg width="20" height="18" viewBox="0 0 20 18" fill="none" xmlns="http://www.w3.org/2000/svg">
<path d="M2 18V8H4V18H2Z" fill="white"/>
<path d="M9 11.5L9 3.93402e-07L11 3.0598e-07L11 11.5H9Z" fill="white"/>
<path d="M16 18V8H18V18H16Z" fill="white"/>
<path d="M2 4V6.99382e-07L4 6.11959e-07L4 4H2Z" fill="white"/>
<path d="M9 18L9 14.5H11L11 18H9Z" fill="white"/>
<path d="M16 4.5V8.74229e-08L18 0L18 4.5H16Z" fill="white"/>
<path fill-rule="evenodd" clip-rule="evenodd" d="M3 3C1.34315 3 0 4.34315 0 6C0 7.65685 1.34315 9 3 9C4.65685 9 6 7.65685 6 6C6 4.34315 4.65685 3 3 3ZM3 5C2.44772 5 2 5.44772 2 6C2 6.55229 2.44772 7 3 7C3.55228 7 4 6.55229 4 6C4 5.44772 3.55228 5 3 5Z" fill="white"/>
<path fill-rule="evenodd" clip-rule="evenodd" d="M10 10C8.34315 10 7 11.3431 7 13C7 14.6569 8.34315 16 10 16C11.6569 16 13 14.6569 13 13C13 11.3431 11.6569 10 10 10ZM10 12C9.44772 12 9 12.4477 9 13C9 13.5523 9.44772 14 10 14C10.5523 14 11 13.5523 11 13C11 12.4477 10.5523 12 10 12Z" fill="white"/>
<path fill-rule="evenodd" clip-rule="evenodd" d="M17 3C15.3431 3 14 4.34315 14 6C14 7.65685 15.3431 9 17 9C18.6569 9 20 7.65685 20 6C20 4.34315 18.6569 3 17 3ZM17 5C16.4477 5 16 5.44772 16 6C16 6.55229 16.4477 7 17 7C17.5523 7 18 6.55229 18 6C18 5.44772 17.5523 5 17 5Z" fill="white"/>
</svg>
