<svg width="24" height="20" viewBox="0 0 24 20" fill="none" xmlns="http://www.w3.org/2000/svg">
<path d="M24 2.30066C23.1016 2.6991 22.1992 2.99988 21.1992 3.10144C22.1992 2.49988 23 1.49988 23.3984 0.398316C22.3984 0.999878 21.3984 1.39832 20.3008 1.60144C19.3008 0.601441 18 -0.00012207 16.6016 -0.00012207C13.8984 -0.00012207 11.6992 2.1991 11.6992 4.89832C11.6992 5.30066 11.6992 5.6991 11.8008 5.99988C7.69922 5.80066 4.10156 3.89832 1.69922 0.898316C1.19922 1.60144 1 2.49988 1 3.39832C1 5.10144 1.89844 6.60144 3.19922 7.49988C2.39844 7.39832 1.60156 7.1991 1 6.89832C1 6.89832 1 6.89832 1 6.99988C1 9.39832 2.69922 11.3983 4.89844 11.8007C4.5 11.8983 4.10156 11.9999 3.60156 11.9999C3.30078 11.9999 3 11.9999 2.69922 11.8983C3.30078 13.8983 5.10156 15.3007 7.30078 15.3007C5.60156 16.6014 3.5 17.3983 1.19922 17.3983C0.800781 17.3983 0.398438 17.3983 0 17.3007C2.19922 18.6991 4.80078 19.4999 7.5 19.4999C16.6016 19.4999 21.5 11.9999 21.5 5.49988C21.5 5.30066 21.5 5.10144 21.5 4.89832C22.5 4.1991 23.3008 3.30066 24 2.30066Z" fill="white"/>
</svg>
