<svg width="26" height="16" viewBox="0 0 26 16" fill="none" xmlns="http://www.w3.org/2000/svg">
<path fill-rule="evenodd" clip-rule="evenodd" d="M25.4034 1.01863C25.5841 0.433148 25.4034 0.00292969 24.5432 0.00292969H21.6988C20.9756 0.00292969 20.6421 0.374575 20.4613 0.784389C20.4613 0.784389 19.0148 4.20943 16.9657 6.43422C16.3027 7.07823 16.0014 7.28313 15.6397 7.28313C15.459 7.28313 15.1877 7.07823 15.1877 6.49279V1.01863C15.1877 0.316051 14.9873 0.00292969 14.3846 0.00292969H9.91481C9.46285 0.00292969 9.19103 0.329013 9.19103 0.638055C9.19103 1.30409 10.2155 1.45768 10.3212 3.33123V7.40028C10.3212 8.2924 10.1553 8.45415 9.79368 8.45415C8.82941 8.45415 6.48383 5.01381 5.09268 1.07716C4.82004 0.312007 4.5466 0.00292969 3.81965 0.00292969H0.975236C0.162548 0.00292969 0 0.374575 0 0.784389C0 1.51626 0.96432 5.1462 4.49003 9.94707C6.84048 13.2257 10.1521 15.0029 13.1656 15.0029C14.9736 15.0029 15.1973 14.6082 15.1973 13.9283V11.4503C15.1973 10.6608 15.3686 10.5033 15.9411 10.5033C16.363 10.5033 17.0862 10.7082 18.7738 12.289C20.7024 14.1625 21.0203 15.0029 22.1051 15.0029H24.9495C25.7622 15.0029 26.1686 14.6082 25.9342 13.8292C25.6777 13.0528 24.7569 11.9264 23.535 10.5911C22.872 9.82997 21.8776 9.01035 21.5763 8.60043C21.1544 8.07357 21.2749 7.83933 21.5763 7.37099C21.5763 7.37099 25.0418 2.62865 25.4034 1.01863Z" fill="white"/>
</svg>
